<svg id="service_x5F_dog" enable-background="new 0 0 300 300" height="512" viewBox="0 0 300 300" width="512" xmlns="http://www.w3.org/2000/svg"><circle cx="134" cy="142" fill="#e5efef" r="86"/><path d="m218.652 114.9h5.802c11.375 0 21.475-7.279 25.072-18.071l3.916-11.749-24.85-9.94-10.259-12.823c-6.081-7.602-15.288-12.027-25.023-12.027h-24.358l-10.052-12.565c-2.853-3.566-8.595-1.188-9.091 5.351l3.233 29.094 1 27.82-79.52 129.22s-29.82 0-29.82-29.82c0 0-4.689 46.89 36.033 49.579 2.681.177 5.229 1.248 7.379 2.86l11.308 8.481c3.194 2.395 7.078 3.69 11.07 3.69h68.4c0-10.979-8.901-19.88-19.88-19.88s29.82-19.88 24.85-49.7l9.94 69.58h29.82v-4.97c0-8.235-6.675-14.91-14.91-14.91l-4.371-83.053-1.783-16.938c-.733-7.476 1.879-15.013 7.328-20.462z" fill="#efefd2"/><path d="m223.622 268h-29.82c-1.991 0-3.678-1.464-3.96-3.435l-6.171-43.196c-1.868 3.94-4.28 7.807-7.225 11.555-2.862 3.643-5.82 6.662-8.358 8.988 8.679 3.579 14.804 12.132 14.804 22.088 0 2.209-1.791 4-4 4h-68.4c-4.825 0-9.609-1.595-13.47-4.489l-11.309-8.481c-1.647-1.235-3.46-1.951-5.244-2.069-12.136-.801-21.774-5.322-28.646-13.438-13.4-15.826-11.202-39.529-11.102-40.531.212-2.12 2.043-3.688 4.179-3.597 2.129.106 3.801 1.863 3.801 3.995 0 21.282 17.424 25.023 23.67 25.681l77.628-126.146-.951-26.462-3.216-28.945c-.027-.247-.032-.496-.013-.744.381-5.021 3.245-9.074 7.297-10.326 3.306-1.018 6.717.044 8.905 2.778l8.852 11.064h22.436c11.01 0 21.269 4.931 28.146 13.527l9.6 12 23.871 9.549c1.966.786 2.979 2.97 2.309 4.979l-3.917 11.749c-4.148 12.445-15.749 20.807-28.867 20.807h-4.145l-7.595 7.595c-4.553 4.553-6.803 10.837-6.175 17.243l1.78 16.909c.007.069.013.139.017.209l4.192 79.65c8.604 1.77 15.095 9.403 15.095 18.523v4.97c.002 2.209-1.789 4-3.998 4zm-26.351-8h22.351v-.97c0-6.016-4.894-10.91-10.91-10.91-2.127 0-3.883-1.665-3.995-3.79l-4.365-82.949-1.772-16.833c-.865-8.827 2.226-17.458 8.478-23.709l8.766-8.767c.75-.75 1.768-1.172 2.829-1.172h5.802c9.669 0 18.22-6.163 21.277-15.336l2.724-8.171-21.349-8.54c-.642-.257-1.206-.676-1.638-1.215l-10.259-12.823c-5.351-6.689-13.333-10.525-21.899-10.525h-24.358c-1.215 0-2.364-.553-3.124-1.501l-10.052-12.565c-.086-.108-.149-.148-.164-.154-.027-.011-.224.012-.504.224-.657.498-1.125 1.514-1.277 2.754l3.187 28.682c.011.099.018.198.022.298l1 27.82c.028.788-.177 1.567-.591 2.24l-79.52 129.22c-.728 1.183-2.018 1.903-3.407 1.903-.201 0-12.12-.137-21.751-7.276 1.301 2.978 2.991 5.866 5.185 8.45 5.415 6.377 13.168 9.941 23.042 10.594 3.335.221 6.625 1.483 9.516 3.651l11.308 8.481c2.485 1.863 5.564 2.89 8.67 2.89h63.89c-1.777-6.826-7.995-11.88-15.37-11.88-1.763 0-3.317-1.153-3.828-2.841s.143-3.51 1.609-4.487c.066-.045 7.146-4.839 13.502-12.989 7.799-10.003 11.117-20.4 9.875-30.934l-.269-1.884c-.31-2.169 1.183-4.184 3.348-4.519 2.162-.337 4.197 1.134 4.558 3.296.111.669.208 1.341.288 2.011z" fill="#4c241d"/><path d="m183.862 208.36c-2.209 0-4-1.791-4-4v-8.545c0-12.266-9.979-22.245-22.245-22.245h-2.963c-10.227 0-19.101 6.929-21.582 16.85-.536 2.145-2.707 3.447-4.851 2.911-2.143-.536-3.446-2.708-2.91-4.851 3.372-13.489 15.438-22.91 29.342-22.91h2.963c16.677 0 30.245 13.568 30.245 30.245v8.545c.001 2.209-1.79 4-3.999 4z" fill="#4c241d"/><circle cx="208.712" cy="80.11" fill="#4c241d" r="4.97"/><path d="m104 76h-16v-15.77h-16v15.77h-16v16h16v16h16v-16h16z" fill="#f53e28"/><path d="m88 112h-16c-2.209 0-4-1.791-4-4v-12h-12c-2.209 0-4-1.791-4-4v-16c0-2.209 1.791-4 4-4h12v-11.77c0-2.209 1.791-4 4-4h16c2.209 0 4 1.791 4 4v11.77h12c2.209 0 4 1.791 4 4v16c0 2.209-1.791 4-4 4h-12v12c0 2.209-1.791 4-4 4zm-12-8h8v-12c0-2.209 1.791-4 4-4h12v-8h-12c-2.209 0-4-1.791-4-4v-11.77h-8v11.77c0 2.209-1.791 4-4 4h-12v8h12c2.209 0 4 1.791 4 4z" fill="#4c241d"/><path d="m202.557 144.129c-.647-6.6 1.321-13.242 5.538-18.458l-54.854-24.38-15.83 25.725 66.984 35.087-.055-1.036z" fill="#f53e28"/><g fill="#4c241d"><path d="m204.396 166.103c-.636 0-1.273-.151-1.856-.457l-66.984-35.087c-.982-.515-1.707-1.413-2.001-2.482s-.131-2.213.45-3.157l15.831-25.725c1.05-1.706 3.2-2.371 5.031-1.559l54.854 24.379c1.136.505 1.973 1.51 2.264 2.719.292 1.209.004 2.484-.778 3.451-3.558 4.402-5.216 9.921-4.669 15.54l1.782 16.923c.007.069.013.139.017.208l.055 1.036c.076 1.436-.625 2.801-1.834 3.577-.658.421-1.41.634-2.162.634zm-61.332-40.642 56.628 29.663-1.113-10.576c-.001-.01-.002-.02-.003-.028-.589-6.014.658-11.942 3.544-17.127l-47.307-21.025z"/><path d="m244 164c-2.209 0-4-1.791-4-4v-12c0-2.209 1.791-4 4-4s4 1.791 4 4v12c0 2.209-1.791 4-4 4z"/><path d="m244 192c-2.209 0-4-1.791-4-4v-12c0-2.209 1.791-4 4-4s4 1.791 4 4v12c0 2.209-1.791 4-4 4z"/><path d="m236 172h-12c-2.209 0-4-1.791-4-4s1.791-4 4-4h12c2.209 0 4 1.791 4 4s-1.791 4-4 4z"/><path d="m264 172h-12c-2.209 0-4-1.791-4-4s1.791-4 4-4h12c2.209 0 4 1.791 4 4s-1.791 4-4 4z"/><circle cx="88" cy="152" r="4"/><circle cx="48" cy="36" r="4"/><path d="m46 156c-7.72 0-14-6.28-14-14s6.28-14 14-14 14 6.28 14 14-6.28 14-14 14zm0-20c-3.309 0-6 2.691-6 6s2.691 6 6 6 6-2.691 6-6-2.691-6-6-6z"/></g></svg>