<?xml version="1.0" encoding="UTF-8"?>
<svg width="24px" height="46px" viewBox="0 0 24 46" version="1.1" xmlns="http://www.w3.org/2000/svg" xmlns:xlink="http://www.w3.org/1999/xlink">
    <!-- Generator: Sketch 58 (84663) - https://sketch.com -->
    <title>noun_iPhone_761175</title>
    <desc>Created with Sketch.</desc>
    <g id="DESKTOP" stroke="none" stroke-width="1" fill="none" fill-rule="evenodd">
        <g id="Home-Banner---Logado" transform="translate(-1138.000000, -713.000000)" fill="#FFFFFF" fill-rule="nonzero">
            <g id="Group-7" transform="translate(220.000000, 686.000000)">
                <g id="noun_iPhone_761175" transform="translate(918.000000, 27.000000)">
                    <g id="Group">
                        <path d="M19.2,0 L4.37142857,0 C1.97142857,0 0,2.03461538 0,4.51153846 L0,41.5326923 C0,43.9653846 1.97142857,46 4.37142857,46 L19.2428571,46 C21.6428571,46 23.6142857,43.9653846 23.6142857,41.4884615 L23.6142857,4.51153846 C23.5714286,2.03461538 21.6,0 19.2,0 Z M21.8571429,41.4 C21.8571429,42.9038462 20.7857143,44.2307692 19.3285714,44.2307692 L4.45714286,44.2307692 C3,44.2307692 1.71428571,42.9038462 1.71428571,41.4 L1.71428571,38.0384615 L21.8571429,38.0384615 L21.8571429,41.4 Z M21.8571429,6.63461538 L1.71428571,6.63461538 L1.71428571,4.37884615 C1.71428571,2.875 3,1.76923077 4.45714286,1.76923077 L19.3285714,1.76923077 C20.7857143,1.76923077 21.8571429,2.875 21.8571429,4.37884615 L21.8571429,6.63461538 Z" id="Shape"></path>
                        <ellipse id="Oval" cx="11.9142857" cy="41.0461538" rx="1.62857143" ry="1.68076923"></ellipse>
                        <path d="M14.8714286,3.53846154 L8.87142857,3.53846154 C8.48571429,3.53846154 8.22857143,3.80384615 8.22857143,4.20192308 C8.22857143,4.6 8.52857143,4.86538462 8.87142857,4.86538462 L14.8714286,4.86538462 C15.2571429,4.86538462 15.5142857,4.6 15.5142857,4.20192308 C15.5571429,3.80384615 15.2571429,3.53846154 14.8714286,3.53846154 Z" id="Path"></path>
                    </g>
                </g>
            </g>
        </g>
    </g>
</svg>