<?xml version="1.0" encoding="UTF-8"?>
<svg width="38px" height="38px" viewBox="0 0 38 38" version="1.1" xmlns="http://www.w3.org/2000/svg" xmlns:xlink="http://www.w3.org/1999/xlink">
    <!-- Generator: Sketch 58 (84663) - https://sketch.com -->
    <title>noun_rating_1847488</title>
    <desc>Created with Sketch.</desc>
    <g id="DESKTOP" stroke="none" stroke-width="1" fill="none" fill-rule="evenodd">
        <g id="Home-Banner---Logado" transform="translate(-831.000000, -718.000000)" fill="#FFFFFF" fill-rule="nonzero">
            <g id="Group-7" transform="translate(220.000000, 686.000000)">
                <g id="Group-4" transform="translate(611.000000, 27.000000)">
                    <g id="noun_rating_1847488" transform="translate(0.000000, 5.000000)">
                        <path d="M19,30.253359 L28.444425,37.2945641 C29.09375,37.7797949 30.0029,37.8177949 30.68975,37.3043077 C31.376125,36.7888718 31.63595,35.9007436 31.376125,35.1095641 L27.776575,23.6993333 L37.202,16.6401026 L37.202,16.6591026 C37.6846,16.3058974 38,15.7232308 38,15.0747949 C38,13.9869231 37.146425,13.1002564 36.089075,13.1002564 L24.418325,13.1002564 L20.809275,1.6885641 C20.567975,0.908102564 19.84455,0.324461538 19,0.324461538 C18.15545,0.324461538 17.432025,0.908102564 17.190725,1.6885641 L13.581675,13.1002564 L1.910925,13.1002564 L1.910925,13.1002564 C0.8626,13.1002564 0,13.9864359 0,15.0747949 C0,15.7232308 0.3154,16.3054103 0.798,16.6591026 L0.798,16.649359 L10.232925,23.6988462 C10.232925,23.6988462 6.623875,35.1090769 6.633375,35.1090769 C6.37355,35.9002564 6.623875,36.7883846 7.31975,37.3130769 C8.006125,37.8173077 8.90625,37.7793077 9.555575,37.2940769 L19,30.253359 Z" id="Path"></path>
                    </g>
                </g>
            </g>
        </g>
    </g>
</svg>