<?xml version="1.0" encoding="UTF-8"?>
<svg width="39px" height="39px" viewBox="0 0 39 39" version="1.1" xmlns="http://www.w3.org/2000/svg" xmlns:xlink="http://www.w3.org/1999/xlink">
    <!-- Generator: Sketch 58 (84663) - https://sketch.com -->
    <title>noun_searching_1018653</title>
    <desc>Created with Sketch.</desc>
    <g id="DESKTOP" stroke="none" stroke-width="1" fill="none" fill-rule="evenodd">
        <g id="Home-Banner---Logado" transform="translate(-232.000000, -717.000000)" fill="#FFFFFF" fill-rule="nonzero">
            <g id="Group-7" transform="translate(220.000000, 686.000000)">
                <g id="Group-2" transform="translate(12.000000, 27.000000)">
                    <g id="noun_searching_1018653" transform="translate(0.000000, 4.000000)">
                        <circle id="Oval" cx="23.9571429" cy="16.7938776" r="2.18877551"></circle>
                        <circle id="Oval" cx="16.7142857" cy="16.7938776" r="2.18877551"></circle>
                        <circle id="Oval" cx="9.51122449" cy="16.7938776" r="2.18877551"></circle>
                        <path d="M16.7142857,0.119387755 C12.2571429,0.119387755 8.07857143,1.87040816 4.93469388,5.01428571 C1.79081633,8.11836735 0.0397959184,12.3367347 0.0397959184,16.7938776 C0.0397959184,21.2510204 1.79081633,25.4295918 4.93469388,28.5734694 C8.07857143,31.7173469 12.2571429,33.4683673 16.7142857,33.4683673 C20.2561224,33.4683673 23.6387755,32.3540816 26.5040816,30.2846939 L26.9020408,30.0061224 L26.9816327,30.0857143 L35.2591837,38.3632653 C35.6571429,38.7612245 36.2142857,39 36.7714286,39 C37.3285714,39 37.8857143,38.7612245 38.2836735,38.3632653 C38.6816327,37.9653061 38.9204082,37.4081633 38.9204082,36.8510204 C38.9204082,36.2938776 38.6816327,35.7367347 38.2836735,35.3387755 L29.9265306,26.9816327 L30.205102,26.5836735 C35.0602041,19.8979592 34.3438776,10.8244898 28.5336735,4.9744898 C25.3897959,1.83061224 21.1714286,0.119387755 16.7142857,0.119387755 Z M26.6234694,26.6632653 C23.9969388,29.3295918 20.455102,30.7622449 16.7142857,30.7622449 C12.9734694,30.7622449 9.47142857,29.2897959 6.80510204,26.6632653 C4.17857143,24.0367347 2.74591837,20.494898 2.74591837,16.7938776 C2.74591837,13.0928571 4.21836735,9.55102041 6.84489796,6.88469388 C9.47142857,4.25816327 13.0132653,2.78571429 16.7142857,2.78571429 C20.455102,2.78571429 23.9571429,4.25816327 26.6234694,6.88469388 C32.0755102,12.3367347 32.0755102,21.2112245 26.6234694,26.6632653 Z" id="Shape"></path>
                    </g>
                </g>
            </g>
        </g>
    </g>
</svg>