<?xml version="1.0" encoding="UTF-8"?>
<svg width="30px" height="25px" viewBox="0 0 30 25" version="1.1" xmlns="http://www.w3.org/2000/svg" xmlns:xlink="http://www.w3.org/1999/xlink">
    <!-- Generator: Sketch 58 (84663) - https://sketch.com -->
    <title>noun_cart_1560293</title>
    <desc>Created with Sketch.</desc>
    <g id="Symbols" stroke="none" stroke-width="1" fill="none" fill-rule="evenodd">
        <g id="header_preto_logado" transform="translate(-945.000000, -26.000000)" fill="#FFFFFF" fill-rule="nonzero">
            <g id="noun_cart_1560293" transform="translate(945.000000, 26.000000)">
                <g id="Group">
                    <path d="M12.74,17.675 C10.955,17.675 9.52,19.145 9.52,20.93 C9.52,22.75 10.955,24.22 12.74,24.22 C14.525,24.22 15.96,22.75 15.96,20.93 C15.96,19.11 14.525,17.675 12.74,17.675 Z" id="Path"></path>
                    <path d="M22.785,17.675 C21,17.675 19.565,19.145 19.565,20.93 C19.565,22.75 21,24.22 22.785,24.22 C24.57,24.22 26.005,22.75 26.005,20.93 C25.97,19.11 24.535,17.675 22.785,17.675 Z" id="Path"></path>
                    <path d="M29.61,4.375 C29.4,4.095 29.085,3.955 28.77,3.955 L8.015,3.955 L7.63,2.765 C7.175,1.295 5.845,0.315 4.27,0.315 L1.295,0.315 C0.7,0.315 0.245,0.77 0.245,1.365 C0.245,1.96 0.7,2.415 1.295,2.415 L4.27,2.415 C4.9,2.415 5.425,2.8 5.6,3.395 L8.82,13.79 C9.31,15.4 10.815,16.485 12.495,16.485 L23.52,16.485 C25.235,16.485 26.705,15.4 27.195,13.755 L29.75,5.32 C29.89,5.005 29.82,4.655 29.61,4.375 Z" id="Path"></path>
                </g>
            </g>
        </g>
    </g>
</svg>