<?xml version="1.0" encoding="UTF-8"?>
<svg width="43px" height="43px" viewBox="0 0 43 43" version="1.1" xmlns="http://www.w3.org/2000/svg" xmlns:xlink="http://www.w3.org/1999/xlink">
    <!-- Generator: Sketch 58 (84663) - https://sketch.com -->
    <title>noun_dealing_131947</title>
    <desc>Created with Sketch.</desc>
    <g id="DESKTOP" stroke="none" stroke-width="1" fill="none" fill-rule="evenodd">
        <g id="Home-Banner---Logado" transform="translate(-530.000000, -718.000000)" fill="#FFFFFF" fill-rule="nonzero">
            <g id="Group-7" transform="translate(220.000000, 686.000000)">
                <g id="Group-3" transform="translate(310.000000, 27.000000)">
                    <g id="noun_dealing_131947" transform="translate(0.000000, 5.000000)">
                        <g id="Group">
                            <path d="M39.6343542,0 L16.9115417,0 C15.055375,0 13.5458958,1.499625 13.5458958,3.3405625 L13.5458958,20.1284792 C13.5458958,21.9712083 15.0562708,23.4690417 16.9115417,23.4690417 L32.2356667,23.4690417 L39.6961667,31.5118333 C39.7400625,31.5593125 39.8009792,31.5843958 39.8645833,31.5843958 C39.8923542,31.5843958 39.9210208,31.5790208 39.9478958,31.5682708 C40.0356875,31.5342292 40.0930208,31.449125 40.0930208,31.3559583 L40.0930208,23.4233542 C41.7395625,23.1985 43,21.7893542 43,20.129375 L43,3.3405625 C43,1.499625 41.489625,0 39.6343542,0 Z M28.277875,20.4456042 C23.42425,20.4456042 19.4763125,16.4967708 19.4763125,11.6431458 C19.4763125,6.79041667 23.42425,2.84158333 28.277875,2.84158333 C33.1315,2.84158333 37.0803335,6.79041667 37.0803335,11.6431458 C37.0812292,16.4967708 33.1315,20.4456042 28.277875,20.4456042 Z" id="Shape"></path>
                            <path d="M28.277875,4.670875 C24.4338542,4.670875 21.3056042,7.799125 21.3056042,11.6431458 C21.3056042,15.4880625 24.4338542,18.6154167 28.277875,18.6154167 C32.1227917,18.6154167 35.250146,15.4880625 35.250146,11.6431458 C35.2510417,7.799125 32.1227917,4.670875 28.277875,4.670875 Z M28.675625,15.8338542 L28.675625,17.2555417 L27.8129375,17.2555417 L27.8129375,15.8750625 C27.020125,15.861625 26.2004375,15.6152708 25.7220625,15.2730625 L26.0508333,14.356625 C26.5426458,14.6853958 27.2539375,14.9451875 28.0180833,14.9451875 C28.9900625,14.9451875 29.6449167,14.3835 29.6449167,13.6050208 C29.6449167,12.8534167 29.1118958,12.3884792 28.0996042,11.9781875 C26.7056875,11.4317292 25.843,10.8019583 25.843,9.61408333 C25.843,8.47816667 26.64925,7.61727083 27.9078958,7.41302083 L27.9078958,6.03164583 L28.7553542,6.03164583 L28.7553542,7.35658333 C29.5750417,7.38345833 30.1367292,7.60204167 30.5326875,7.83585417 L30.1904792,8.73795833 C29.9038125,8.573125 29.3430208,8.27302083 28.4677917,8.27302083 C27.4151875,8.27302083 27.0183333,8.901 27.0183333,9.44835417 C27.0183333,10.1605417 27.525375,10.5161875 28.7150417,11.0071042 C30.1223958,11.5822292 30.8327949,12.292625 30.8327949,13.5091667 C30.8345833,14.5895417 30.083875,15.6009375 28.675625,15.8338542 Z" id="Shape"></path>
                            <path d="M11.7157083,20.129375 L11.7157083,11.4147083 L3.36654167,11.4147083 C1.510375,11.4147083 0,12.9134375 0,14.7552708 L0,31.5440833 C0,33.2049583 1.2604375,34.6132083 2.90697917,34.8398542 L2.90697917,42.7715625 C2.90697917,42.8647292 2.9643125,42.9498333 3.05210417,42.9829792 C3.079875,42.994625 3.10764583,43 3.13541667,43 C3.198125,43 3.25904167,42.9740208 3.3029375,42.9265417 L10.7634375,34.8846458 L26.0884583,34.8846458 C27.9428333,34.8846458 29.4532083,33.3859167 29.4532083,31.5440833 L29.4532083,25.2992292 L16.9115417,25.2992292 C14.0466667,25.2992292 11.7157083,22.9799167 11.7157083,20.129375 Z" id="Path"></path>
                        </g>
                    </g>
                </g>
            </g>
        </g>
    </g>
</svg>