<?xml version="1.0" encoding="utf-8"?>
<!-- Generator: Adobe Illustrator 24.0.1, SVG Export Plug-In . SVG Version: 6.00 Build 0)  -->
<svg version="1.1" id="Camada_1" xmlns="http://www.w3.org/2000/svg" xmlns:xlink="http://www.w3.org/1999/xlink" x="0px" y="0px"
	 viewBox="0 0 91.03 91.03" style="enable-background:new 0 0 91.03 91.03;" xml:space="preserve">
<style type="text/css">
	.st0{fill:#21242E;}
	.st1{fill:#777A7A;}
	.st2{fill:#00B142;}
</style>
<g>
	<g>
		<path class="st0" d="M84.74,6.29c-8.39-8.39-22.05-8.39-30.45,0L39.07,21.52c-1.29,1.29-1.29,3.39,0,4.68
			c1.29,1.29,3.39,1.29,4.68,0l15.22-15.22c2.8-2.8,6.55-4.35,10.54-4.35c3.99,0,7.74,1.54,10.54,4.35c2.8,2.8,4.35,6.55,4.35,10.54
			c0,3.99-1.55,7.74-4.35,10.54L60.14,51.97c-5.81,5.81-15.27,5.81-21.08,0c-1.29-1.29-3.39-1.29-4.68,0
			c-1.29,1.29-1.29,3.39,0,4.68c4.2,4.19,9.71,6.3,15.23,6.3s11.03-2.1,15.22-6.3l19.91-19.91c4.05-4.05,6.29-9.46,6.29-15.23
			C91.03,15.75,88.79,10.35,84.74,6.29L84.74,6.29z M84.74,6.29"/>
	</g>
	<path class="st0" d="M44.92,67.18L32.04,80.07c-2.8,2.79-6.55,4.34-10.54,4.34c-3.99,0-7.74-1.55-10.54-4.34
		c-5.81-5.81-5.81-15.27,0-21.08L29.7,40.25c2.8-2.8,6.55-4.35,10.54-4.35c3.99,0,7.74,1.54,10.54,4.35c1.29,1.29,3.39,1.29,4.68,0
		c1.29-1.29,1.29-3.39,0-4.68c-8.39-8.39-22.05-8.39-30.45,0L6.28,54.3C2.23,58.36,0,63.77,0,69.53c0,5.76,2.23,11.17,6.28,15.23
		c4.05,4.05,9.46,6.28,15.22,6.28c5.76,0,11.17-2.23,15.23-6.28l12.88-12.89c1.29-1.29,1.29-3.39,0-4.68
		C48.31,65.89,46.22,65.89,44.92,67.18L44.92,67.18z M44.92,67.18"/>
</g>
</svg>
