<?xml version="1.0" encoding="utf-8"?>
<!-- Generator: Adobe Illustrator 24.0.1, SVG Export Plug-In . SVG Version: 6.00 Build 0)  -->
<svg version="1.1" id="Camada_1" xmlns="http://www.w3.org/2000/svg" xmlns:xlink="http://www.w3.org/1999/xlink" x="0px" y="0px"
	 viewBox="0 0 51.54 32.6" style="enable-background:new 0 0 51.54 32.6;" xml:space="preserve">
<style type="text/css">
	.st0{fill:#21242E;}
	.st1{fill:#777A7A;}
	.st2{fill:#00B142;}
</style>
<g>
	<path class="st0" d="M47.93,13.82L46.6,8.48c0.36-0.08,0.64-0.4,0.64-0.79V6.83c0-1.87-1.52-3.39-3.39-3.39h-6.08V1.67
		C37.77,0.75,37.02,0,36.1,0H5.11C4.19,0,3.44,0.75,3.44,1.67V16.3c0,0.45,0.36,0.81,0.81,0.81c0.45,0,0.81-0.36,0.81-0.81V1.67
		c0-0.03,0.02-0.05,0.05-0.05H36.1c0.03,0,0.05,0.02,0.05,0.05V16.3c0,0.45,0.36,0.81,0.81,0.81s0.81-0.36,0.81-0.81v-0.91h9.52
		c0,0,0,0,0,0c0,0,0,0,0,0c1.17,0,2.17,0.77,2.51,1.83h-2.51c-0.45,0-0.81,0.36-0.81,0.81v1.72c0,1.39,1.13,2.53,2.53,2.53h0.91
		v3.55h-2.11c-0.69-2-2.6-3.44-4.83-3.44c-2.23,0-4.14,1.44-4.83,3.44h-0.39v-6.08c0-0.45-0.36-0.81-0.81-0.81s-0.81,0.36-0.81,0.81
		v6.08H19.41c-0.69-2-2.6-3.44-4.83-3.44c-2.23,0-4.14,1.44-4.83,3.44H5.11c-0.03,0-0.05-0.02-0.05-0.05v-1.78h3.5
		c0.45,0,0.81-0.36,0.81-0.81c0-0.45-0.36-0.81-0.81-0.81H0.81C0.36,22.38,0,22.74,0,23.19c0,0.45,0.36,0.81,0.81,0.81h2.64v1.78
		c0,0.92,0.75,1.67,1.67,1.67h4.36c0,0.02,0,0.04,0,0.05c0,2.82,2.29,5.11,5.11,5.11s5.11-2.29,5.11-5.11c0-0.02,0-0.04,0-0.05
		h18.19c0,0.02,0,0.04,0,0.05c0,2.82,2.29,5.11,5.11,5.11c2.82,0,5.11-2.29,5.11-5.11c0-0.02,0-0.04,0-0.05h2.64
		c0.45,0,0.81-0.36,0.81-0.81v-8.61C51.54,15.9,49.97,14.13,47.93,13.82L47.93,13.82z M37.77,5.06h6.08c0.98,0,1.78,0.8,1.78,1.78
		v0.05h-7.86V5.06z M37.77,13.77V8.5h7.17l1.32,5.27H37.77z M14.58,30.99c-1.93,0-3.5-1.57-3.5-3.5s1.57-3.5,3.5-3.5
		c1.93,0,3.5,1.57,3.5,3.5S16.51,30.99,14.58,30.99L14.58,30.99z M42.99,30.99c-1.93,0-3.5-1.57-3.5-3.5s1.57-3.5,3.5-3.5
		c1.93,0,3.5,1.57,3.5,3.5S44.91,30.99,42.99,30.99L42.99,30.99z M49.93,20.66h-0.91c-0.5,0-0.91-0.41-0.91-0.91v-0.91h1.83
		L49.93,20.66L49.93,20.66z M49.93,20.66"/>
	<path class="st0" d="M14.58,25.82c-0.92,0-1.67,0.75-1.67,1.67s0.75,1.67,1.67,1.67c0.92,0,1.67-0.75,1.67-1.67
		S15.5,25.82,14.58,25.82L14.58,25.82z M14.58,25.82"/>
	<path class="st0" d="M42.99,25.82c-0.92,0-1.67,0.75-1.67,1.67s0.75,1.67,1.67,1.67c0.92,0,1.67-0.75,1.67-1.67
		S43.91,25.82,42.99,25.82L42.99,25.82z M42.99,25.82"/>
	<path class="st0" d="M33.52,22.38H21.47c-0.45,0-0.81,0.36-0.81,0.81c0,0.45,0.36,0.81,0.81,0.81h12.05c0.45,0,0.81-0.36,0.81-0.81
		C34.32,22.74,33.96,22.38,33.52,22.38L33.52,22.38z M33.52,22.38"/>
	<path class="st0" d="M12.86,18.94H2.53c-0.45,0-0.81,0.36-0.81,0.81c0,0.45,0.36,0.81,0.81,0.81h10.33c0.45,0,0.81-0.36,0.81-0.81
		C13.67,19.3,13.3,18.94,12.86,18.94L12.86,18.94z M12.86,18.94"/>
	<path class="st0" d="M28.06,7.98c-0.32-0.32-0.83-0.32-1.14,0l-7.18,7.18l-3.73-3.73c-0.32-0.32-0.83-0.32-1.14,0
		c-0.32,0.32-0.32,0.83,0,1.14l4.3,4.3c0.16,0.16,0.36,0.24,0.57,0.24c0.21,0,0.41-0.08,0.57-0.24l7.75-7.75
		C28.38,8.81,28.38,8.3,28.06,7.98L28.06,7.98z M28.06,7.98"/>
</g>
</svg>
