<?xml version="1.0" encoding="utf-8"?>
<!-- Generator: Adobe Illustrator 24.0.1, SVG Export Plug-In . SVG Version: 6.00 Build 0)  -->
<svg version="1.1" id="Camada_1" xmlns="http://www.w3.org/2000/svg" xmlns:xlink="http://www.w3.org/1999/xlink" x="0px" y="0px"
	 viewBox="0 0 80.98 80.98" style="enable-background:new 0 0 80.98 80.98;" xml:space="preserve">
<style type="text/css">
	.st0{fill:#21242E;}
	.st1{fill:#777A7A;}
	.st2{fill:#00B142;}
</style>
<g>
	<path class="st0" d="M77.61,0H3.37C1.51,0,0,1.51,0,3.37s1.51,3.37,3.37,3.37h74.23c1.86,0,3.37-1.51,3.37-3.37S79.47,0,77.61,0
		L77.61,0z M77.61,0"/>
	<path class="st0" d="M77.61,74.23H3.37C1.51,74.23,0,75.74,0,77.61c0,1.86,1.51,3.37,3.37,3.37h74.23c1.86,0,3.37-1.51,3.37-3.37
		C80.98,75.74,79.47,74.23,77.61,74.23L77.61,74.23z M77.61,74.23"/>
	<path class="st0" d="M64.11,25.31c1.86,0,3.37-1.51,3.37-3.37s-1.51-3.37-3.37-3.37H16.87c-1.86,0-3.37,1.51-3.37,3.37
		s1.51,3.37,3.37,3.37H64.11z M64.11,25.31"/>
	<path class="st0" d="M77.61,37.12H3.37C1.51,37.12,0,38.63,0,40.49c0,1.86,1.51,3.37,3.37,3.37h74.23c1.86,0,3.37-1.51,3.37-3.37
		C80.98,38.63,79.47,37.12,77.61,37.12L77.61,37.12z M77.61,37.12"/>
	<path class="st0" d="M64.11,62.42c1.86,0,3.37-1.51,3.37-3.37s-1.51-3.37-3.37-3.37H16.87c-1.86,0-3.37,1.51-3.37,3.37
		s1.51,3.37,3.37,3.37H64.11z M64.11,62.42"/>
</g>
</svg>
