<?xml version="1.0" encoding="utf-8"?>
<!-- Generator: Adobe Illustrator 24.0.1, SVG Export Plug-In . SVG Version: 6.00 Build 0)  -->
<svg version="1.1" id="Camada_1" xmlns="http://www.w3.org/2000/svg" xmlns:xlink="http://www.w3.org/1999/xlink" x="0px" y="0px"
	 viewBox="0 0 40.42 40.42" style="enable-background:new 0 0 40.42 40.42;" xml:space="preserve">
<style type="text/css">
	.st0{fill:#21242E;}
	.st1{fill:#777A7A;}
	.st2{fill:#00B142;}
</style>
<g>
	<path class="st0" d="M38.35,15.97l-2.84-0.48c-0.3-0.95-0.68-1.87-1.14-2.75l1.67-2.34c0.71-1,0.6-2.36-0.27-3.22l-2.52-2.52
		c-0.47-0.47-1.1-0.73-1.76-0.73c-0.52,0-1.02,0.16-1.44,0.46L27.7,6.06c-0.91-0.48-1.87-0.88-2.85-1.17l-0.47-2.8
		C24.17,0.88,23.13,0,21.91,0h-3.55c-1.22,0-2.26,0.88-2.47,2.09L15.4,4.96c-0.95,0.3-1.87,0.68-2.74,1.16l-2.32-1.67
		c-0.42-0.3-0.93-0.46-1.45-0.46c-0.67,0-1.3,0.26-1.76,0.73L4.59,7.23c-0.86,0.86-0.98,2.22-0.27,3.22l1.69,2.37
		c-0.46,0.89-0.84,1.81-1.12,2.76l-2.8,0.47C0.88,16.25,0,17.29,0,18.52v3.55c0,1.22,0.88,2.26,2.09,2.47l2.87,0.49
		c0.3,0.95,0.68,1.87,1.16,2.74l-1.66,2.31c-0.71,1-0.6,2.36,0.27,3.22l2.52,2.52c0.47,0.47,1.1,0.73,1.76,0.73
		c0.52,0,1.02-0.16,1.44-0.46l2.37-1.69c0.85,0.45,1.75,0.81,2.67,1.1l0.47,2.84c0.2,1.21,1.24,2.09,2.47,2.09h3.56
		c1.22,0,2.26-0.88,2.47-2.09l0.48-2.84c0.95-0.3,1.87-0.68,2.75-1.14l2.34,1.67c0.42,0.3,0.93,0.46,1.45,0.46
		c0.67,0,1.29-0.26,1.76-0.73l2.52-2.52c0.86-0.86,0.98-2.22,0.27-3.22l-1.67-2.35c0.46-0.89,0.85-1.81,1.14-2.75l2.84-0.47
		c1.21-0.2,2.09-1.24,2.09-2.47v-3.55C40.43,17.21,39.56,16.17,38.35,15.97L38.35,15.97z M38.15,21.99c0,0.11-0.08,0.2-0.19,0.22
		l-3.55,0.59c-0.45,0.08-0.8,0.41-0.91,0.84c-0.32,1.24-0.81,2.43-1.47,3.54c-0.23,0.39-0.21,0.87,0.05,1.24l2.09,2.94
		c0.06,0.08,0.05,0.21-0.03,0.29l-2.52,2.52c-0.06,0.06-0.12,0.07-0.16,0.07c-0.05,0-0.09-0.02-0.13-0.04l-2.93-2.09
		c-0.36-0.26-0.85-0.28-1.24-0.05c-1.11,0.66-2.3,1.15-3.54,1.47c-0.44,0.11-0.77,0.47-0.84,0.91l-0.6,3.55
		c-0.02,0.11-0.11,0.19-0.22,0.19h-3.55c-0.11,0-0.2-0.08-0.22-0.19l-0.59-3.55c-0.08-0.45-0.4-0.8-0.84-0.91
		c-1.21-0.31-2.37-0.79-3.46-1.42c-0.18-0.1-0.38-0.15-0.57-0.15c-0.23,0-0.46,0.07-0.66,0.21l-2.96,2.1
		c-0.04,0.03-0.08,0.04-0.13,0.04c-0.03,0-0.1-0.01-0.16-0.07l-2.52-2.52c-0.08-0.08-0.08-0.19-0.03-0.29l2.08-2.91
		c0.26-0.37,0.28-0.86,0.05-1.25c-0.66-1.1-1.17-2.29-1.49-3.53c-0.12-0.43-0.47-0.76-0.91-0.84l-3.57-0.61
		c-0.11-0.02-0.19-0.11-0.19-0.22v-3.55c0-0.11,0.08-0.2,0.19-0.22l3.52-0.59c0.45-0.08,0.81-0.41,0.92-0.84
		c0.31-1.24,0.79-2.44,1.44-3.55c0.23-0.39,0.2-0.87-0.06-1.23l-2.1-2.96C6.13,9.04,6.14,8.92,6.21,8.84l2.52-2.52
		c0.06-0.06,0.12-0.07,0.16-0.07c0.05,0,0.09,0.02,0.13,0.04l2.91,2.08c0.37,0.26,0.86,0.28,1.25,0.05c1.1-0.66,2.29-1.17,3.53-1.49
		c0.43-0.12,0.76-0.47,0.84-0.91l0.61-3.57c0.02-0.11,0.11-0.19,0.22-0.19h3.55c0.11,0,0.2,0.08,0.22,0.19l0.59,3.52
		c0.08,0.45,0.4,0.81,0.84,0.92c1.27,0.32,2.49,0.82,3.62,1.49c0.39,0.23,0.87,0.21,1.24-0.05l2.91-2.09
		c0.04-0.03,0.08-0.04,0.13-0.04c0.03,0,0.1,0.01,0.16,0.07l2.52,2.52c0.08,0.08,0.08,0.19,0.03,0.29L32.1,12
		c-0.26,0.36-0.28,0.85-0.05,1.24c0.66,1.11,1.15,2.3,1.47,3.54c0.11,0.44,0.47,0.77,0.91,0.84l3.55,0.6
		c0.11,0.02,0.19,0.11,0.19,0.22L38.15,21.99L38.15,21.99z M38.15,21.99"/>
	<path class="st0" d="M20.21,11.48c-4.81,0-8.72,3.91-8.72,8.72s3.91,8.72,8.72,8.72s8.72-3.91,8.72-8.72S25.03,11.48,20.21,11.48
		L20.21,11.48z M20.21,26.65c-3.55,0-6.44-2.89-6.44-6.44c0-3.55,2.89-6.44,6.44-6.44s6.44,2.89,6.44,6.44
		C26.65,23.76,23.77,26.65,20.21,26.65L20.21,26.65z M20.21,26.65"/>
</g>
</svg>
