<?xml version="1.0" encoding="utf-8"?>
<!-- Generator: Adobe Illustrator 24.0.1, SVG Export Plug-In . SVG Version: 6.00 Build 0)  -->
<svg version="1.1" id="Camada_1" xmlns="http://www.w3.org/2000/svg" xmlns:xlink="http://www.w3.org/1999/xlink" x="0px" y="0px"
	 viewBox="0 0 53.06 48.64" style="enable-background:new 0 0 53.06 48.64;" xml:space="preserve">
<style type="text/css">
	.st0{fill:#21242E;}
	.st1{fill:#777A7A;}
	.st2{fill:#00B142;}
</style>
<g>
	<path class="st0" d="M51.95,26.53c0.61,0,1.11-0.49,1.11-1.11V19.9c0-2.44-1.98-4.42-4.42-4.42h-8.32
		c-0.32-0.7-0.52-1.44-0.52-2.21c0-2,1.11-3.85,2.9-4.83c0.26-0.14,0.45-0.38,0.53-0.67c0.08-0.28,0.04-0.59-0.1-0.85l-2.69-4.7
		c-0.59-1.03-1.54-1.76-2.67-2.06c-1.13-0.3-2.31-0.14-3.33,0.45L2.19,19.36c-2.09,1.22-2.81,3.92-1.61,6.03l2.78,4.87
		c0.15,0.26,0.39,0.45,0.68,0.52c0.29,0.07,0.59,0.03,0.85-0.12c0.89-0.54,1.85-0.81,2.84-0.81c2.41,0,4.52,1.59,5.24,3.89
		c-0.72,2.22-2.78,3.85-5.24,3.85c-0.61,0-1.11,0.49-1.11,1.11v5.53c0,2.44,1.98,4.42,4.42,4.42h37.58c2.44,0,4.42-1.98,4.42-4.42
		v-5.53c0-0.61-0.49-1.11-1.11-1.11c-3.05,0-5.53-2.48-5.53-5.53S48.9,26.53,51.95,26.53z M35.54,2.51c0.5-0.29,1.09-0.37,1.64-0.22
		c0.56,0.15,1.04,0.52,1.33,1.03l2.17,3.8c-1.94,1.45-3.1,3.72-3.1,6.16c0,0.75,0.12,1.49,0.34,2.21H13.26L35.54,2.51z M7.74,27.63
		c-1.01,0-2.02,0.21-2.97,0.61L2.5,24.29c-0.61-1.06-0.25-2.41,0.8-3.02l3.39-1.97c-0.03,0.2-0.06,0.39-0.06,0.6v5.53
		c0,0.61,0.49,1.11,1.11,1.11c2.03,0,3.8,1.12,4.75,2.76C11.17,28.25,9.51,27.63,7.74,27.63z M50.84,39.71v4.5
		c0,1.22-0.99,2.21-2.21,2.21H22.11v-1.93c0-0.61-0.49-1.11-1.11-1.11c-0.61,0-1.11,0.49-1.11,1.11v1.93h-8.84
		c-1.22,0-2.21-0.99-2.21-2.21v-4.5c3.74-0.54,6.63-3.77,6.63-7.66s-2.89-7.12-6.63-7.66v-4.5c0-1.22,0.99-2.21,2.21-2.21h8.84v2.49
		c0,0.61,0.49,1.11,1.11,1.11c0.61,0,1.11-0.49,1.11-1.11v-2.49h26.53c1.22,0,2.21,0.99,2.21,2.21v4.5
		c-3.74,0.54-6.63,3.77-6.63,7.66S47.1,39.18,50.84,39.71z"/>
	<path class="st0" d="M21,25.7c-0.61,0-1.11,0.49-1.11,1.11v2.21c0,0.61,0.49,1.11,1.11,1.11c0.61,0,1.11-0.49,1.11-1.11v-2.21
		C22.11,26.19,21.61,25.7,21,25.7z"/>
	<path class="st0" d="M21,34.54c-0.61,0-1.11,0.49-1.11,1.11v2.21c0,0.61,0.49,1.11,1.11,1.11c0.61,0,1.11-0.49,1.11-1.11v-2.21
		C22.11,35.04,21.61,34.54,21,34.54z"/>
	<path class="st0" d="M41.56,22.33c-0.49-0.36-1.18-0.27-1.55,0.22L26.75,40.24c-0.37,0.49-0.27,1.18,0.22,1.55
		c0.2,0.15,0.43,0.22,0.66,0.22c0.34,0,0.67-0.15,0.89-0.44l13.26-17.69C42.15,23.39,42.05,22.69,41.56,22.33z"/>
	<path class="st0" d="M29.84,30.95c1.86,0,3.32-1.94,3.32-4.42s-1.46-4.42-3.32-4.42s-3.32,1.94-3.32,4.42S27.98,30.95,29.84,30.95z
		 M29.84,24.32c0.45,0,1.11,0.86,1.11,2.21s-0.65,2.21-1.11,2.21c-0.45,0-1.11-0.86-1.11-2.21S29.39,24.32,29.84,24.32z"/>
	<path class="st0" d="M38.69,33.16c-1.86,0-3.32,1.94-3.32,4.42S36.83,42,38.69,42S42,40.06,42,37.58S40.55,33.16,38.69,33.16z
		 M38.69,39.79c-0.45,0-1.11-0.86-1.11-2.21c0-1.35,0.65-2.21,1.11-2.21c0.45,0,1.11,0.86,1.11,2.21
		C39.79,38.93,39.14,39.79,38.69,39.79z"/>
</g>
</svg>
