<?xml version="1.0" encoding="UTF-8" standalone="no"?>
<svg
   xmlns:dc="http://purl.org/dc/elements/1.1/"
   xmlns:cc="http://creativecommons.org/ns#"
   xmlns:rdf="http://www.w3.org/1999/02/22-rdf-syntax-ns#"
   xmlns:svg="http://www.w3.org/2000/svg"
   xmlns="http://www.w3.org/2000/svg"
   xmlns:sodipodi="http://sodipodi.sourceforge.net/DTD/sodipodi-0.dtd"
   xmlns:inkscape="http://www.inkscape.org/namespaces/inkscape"
   height="440pt"
   viewBox="0 -28 440 440"
   width="440pt"
   version="1.1"
   id="svg9"
   sodipodi:docname="design.svg"
   inkscape:version="0.92.3 (2405546, 2018-03-11)">
  <metadata
     id="metadata15">
    <rdf:RDF>
      <cc:Work
         rdf:about="">
        <dc:format>image/svg+xml</dc:format>
        <dc:type
           rdf:resource="http://purl.org/dc/dcmitype/StillImage" />
        <dc:title></dc:title>
      </cc:Work>
    </rdf:RDF>
  </metadata>
  <defs
     id="defs13" />
  <sodipodi:namedview
     pagecolor="#ffffff"
     bordercolor="#666666"
     borderopacity="1"
     objecttolerance="10"
     gridtolerance="10"
     guidetolerance="10"
     inkscape:pageopacity="0"
     inkscape:pageshadow="2"
     inkscape:window-width="1366"
     inkscape:window-height="705"
     id="namedview11"
     showgrid="false"
     inkscape:zoom="0.40227273"
     inkscape:cx="38.97846"
     inkscape:cy="524.69785"
     inkscape:window-x="-8"
     inkscape:window-y="-8"
     inkscape:window-maximized="1"
     inkscape:current-layer="svg9" />
  <linearGradient
     id="a"
     gradientUnits="userSpaceOnUse"
     x1="17.04"
     x2="414.96"
     y1="386.96"
     y2="-10.96"
     gradientTransform="matrix(1.3333334,0,0,1.3333334,0,37.333335)">
    <stop
       offset="0"
       stop-color="#41dfd0"
       id="stop2" />
    <stop
       offset="1"
       stop-color="#ee83ef"
       id="stop4" />
  </linearGradient>
  <path
     style="fill:#000000;stroke-width:1"
     d="m 359.99999,4.8687998e-4 c 13.25391,0 24,10.74609312002 24,23.99999912002 V 135.99951 h 31.99951 c 13.2539,0 24,10.74609 24,24 v 200.00096 c 0,13.25391 -10.7461,24 -24,24 h -96 c -13.25391,0 -24,-10.74609 -24,-24 v -48 h -55.99951 v 21.78516 l 22.85449,38.09326 c 1.48438,2.47265 1.52735,5.5503 0.10548,8.05811 -1.41798,2.51171 -4.07813,4.06347 -6.96094,4.06347 H 127.99951 c -2.88281,0 -5.54296,-1.55176 -6.96094,-4.06347 -1.42187,-2.50781 -1.3789,-5.58546 0.10548,-8.05811 l 22.85594,-38.09326 V 312.00047 H 23.999999 C 10.746097,312.00047 0,301.25438 0,288.00047 V 24.000486 C 0,10.74658 10.746097,4.8687998e-4 23.999999,4.8687998e-4 Z m 0,15.99902312002 H 23.999999 c -4.417965,0 -8.00097,3.583007 -8.00097,8.000976 V 231.9995 H 295.9995 v -16.74463 l 0.30176,-0.0161 c 0,0 -1.31858,-26.36692 -0.30176,-55.23925 0.0631,-1.79225 0.24298,-3.45524 0.52442,-4.99805 2.30022,-10.8549 11.93589,-19.00195 23.47558,-19.00195 h 16.00049 v -0.12891 l 15.99903,0.12891 H 367.9995 V 24.000486 c 0,-4.417969 -3.58154,-8.000976 -7.99951,-8.000976 z m 55.99951,136.00048 h -96 c -4.41797,0 -7.99951,3.58155 -7.99951,7.99952 v 3.10253 h -0.17871 V 313.187 h 0.17871 v 6.81299 H 423.99901 V 183.99951 h -0.31348 v -15.99903 h 0.31348 v -8.00097 c 0,-4.41797 -3.58154,-7.99952 -7.99951,-7.99952 z m -120,96 H 15.999029 v 40.00048 c 0,4.41797 3.583005,7.99952 8.00097,7.99952 H 295.9995 Z m -95.99999,16.00048 v 15.99903 h -16.00049 v -15.99903 z m 24,48 h -64.00049 v 24 c 0,1.45313 -0.39404,2.87453 -1.14405,4.12061 l -16.71825,27.8789 h 99.72656 l -16.71973,-27.8789 c -0.75,-1.24608 -1.14404,-2.66748 -1.14404,-4.12061 z m 199.9995,24 H 311.99999 v 24 c 0,4.41797 3.58154,7.99951 7.99951,7.99951 h 96 c 4.41797,0 7.99951,-3.58154 7.99951,-7.99951 z m -48,7.99952 v 16.00048 h -15.99902 v -16.00048 z"
     id="path7"
     inkscape:connector-curvature="0" />
</svg>
