<?xml version="1.0" encoding="utf-8"?>
<!-- Generator: Adobe Illustrator 24.0.1, SVG Export Plug-In . SVG Version: 6.00 Build 0)  -->
<svg version="1.1" id="Camada_1" xmlns="http://www.w3.org/2000/svg" xmlns:xlink="http://www.w3.org/1999/xlink" x="0px" y="0px"
	 viewBox="0 0 86.17 108.13" style="enable-background:new 0 0 86.17 108.13;" xml:space="preserve">
<style type="text/css">
	.st0{fill:#21242E;}
	.st1{fill:#777A7A;}
	.st2{fill:#00B142;}
</style>
<g>
	<g>
		<path class="st0" d="M85.7,0.84C85.28,0.31,84.64,0,83.96,0H24.83c-1.02,0-1.91,0.7-2.15,1.69l-2.44,10.07
			c-0.15,0.66-0.01,1.35,0.42,1.89c0.42,0.53,1.06,0.84,1.74,0.84h20.78l-19,79.15H4.65c-1.02,0-1.91,0.7-2.15,1.69l-2.44,10.07
			c-0.15,0.66-0.01,1.35,0.41,1.89c0.42,0.53,1.06,0.84,1.73,0.84h59.13c1.02,0,1.91-0.7,2.15-1.69l2.43-10.07
			c0.16-0.66,0.01-1.36-0.41-1.89c-0.41-0.53-1.06-0.85-1.73-0.85H43.31l19-79.15h19.21c1.02,0,1.9-0.7,2.15-1.69L86.1,2.73
			C86.27,2.07,86.12,1.38,85.7,0.84L85.7,0.84z M85.7,0.84"/>
	</g>
</g>
</svg>
