<?xml version="1.0" encoding="utf-8"?>
<!-- Generator: Adobe Illustrator 24.0.1, SVG Export Plug-In . SVG Version: 6.00 Build 0)  -->
<svg version="1.1" id="Camada_1" xmlns="http://www.w3.org/2000/svg" xmlns:xlink="http://www.w3.org/1999/xlink" x="0px" y="0px"
	 viewBox="0 0 52.4 55.13" style="enable-background:new 0 0 52.4 55.13;" xml:space="preserve">
<style type="text/css">
	.st0{fill:#21242E;}
	.st1{fill:#777A7A;}
	.st2{fill:#00B142;}
</style>
<g>
	<path class="st0" d="M44.25,11.3h-1.42V8.15c0-4.49-3.66-8.15-8.15-8.15h-17.1c-4.49,0-8.15,3.66-8.15,8.15v3.15H8.15
		C3.66,11.3,0,14.96,0,19.45v13.14c0,4.49,3.66,8.15,8.15,8.15h1.28v10.33c0,2.24,1.83,4.07,4.07,4.07h25.26
		c2.24,0,4.07-1.83,4.07-4.07V40.73h1.43c4.49,0,8.15-3.66,8.15-8.15V19.45C52.4,14.96,48.74,11.3,44.25,11.3L44.25,11.3z
		 M12.51,8.15c0-2.79,2.27-5.06,5.06-5.06h17.09c2.79,0,5.06,2.27,5.06,5.06v3.15H12.51V8.15z M39.74,51.09
		c0,0.54-0.45,0.98-0.98,0.98H13.49c-0.54,0-0.98-0.45-0.98-0.98V34.05h27.23V51.09z M49.31,32.6c0,2.79-2.27,5.06-5.06,5.06h-1.42
		v-3.61h2.03c0.86,0,1.54-0.69,1.54-1.54c0-0.86-0.69-1.54-1.54-1.54H7.16c-0.86,0-1.54,0.69-1.54,1.54c0,0.86,0.69,1.54,1.54,1.54
		h2.27v3.61H8.15c-2.79,0-5.06-2.27-5.06-5.06V19.46c0-2.79,2.27-5.06,5.06-5.06h36.11c2.79,0,5.06,2.27,5.06,5.06V32.6z
		 M49.31,32.6"/>
	<path class="st0" d="M16.25,41.64h19.64c0.86,0,1.54-0.69,1.54-1.54c0-0.86-0.69-1.54-1.54-1.54H16.25c-0.86,0-1.54,0.69-1.54,1.54
		C14.71,40.95,15.4,41.64,16.25,41.64L16.25,41.64z M16.25,41.64"/>
	<path class="st0" d="M36.01,44.86H16.36c-0.86,0-1.54,0.69-1.54,1.54c0,0.86,0.69,1.54,1.54,1.54H36c0.86,0,1.54-0.69,1.54-1.54
		C37.55,45.54,36.86,44.86,36.01,44.86L36.01,44.86z M36.01,44.86"/>
	<path class="st0" d="M44.22,17.36h-3.13c-0.86,0-1.54,0.69-1.54,1.54c0,0.86,0.69,1.54,1.54,1.54h3.13c0.86,0,1.54-0.69,1.54-1.54
		C45.76,18.04,45.08,17.36,44.22,17.36L44.22,17.36z M44.22,17.36"/>
</g>
</svg>
