<?xml version="1.0" encoding="utf-8"?>
<!-- Generator: Adobe Illustrator 24.0.1, SVG Export Plug-In . SVG Version: 6.00 Build 0)  -->
<svg version="1.1" id="Camada_1" xmlns="http://www.w3.org/2000/svg" xmlns:xlink="http://www.w3.org/1999/xlink" x="0px" y="0px"
	 viewBox="0 0 124.88 101.25" style="enable-background:new 0 0 124.88 101.25;" xml:space="preserve">
<style type="text/css">
	.st0{fill:#21242E;}
	.st1{fill:#777A7A;}
	.st2{fill:#00B142;}
</style>
<g>
	<path class="st0" d="M121.12,0H3.75C1.69,0,0,1.69,0,3.75S1.69,7.5,3.75,7.5h117.37c2.06,0,3.75-1.69,3.75-3.75S123.19,0,121.12,0
		L121.12,0z M121.12,0"/>
	<path class="st0" d="M121.12,31.12H3.75C1.69,31.12,0,32.81,0,34.88s1.69,3.75,3.75,3.75h117.37c2.06,0,3.75-1.69,3.75-3.75
		S123.19,31.12,121.12,31.12L121.12,31.12z M121.12,31.12"/>
	<path class="st0" d="M121.12,62.63H3.75C1.69,62.63,0,64.31,0,66.38s1.69,3.75,3.75,3.75h117.37c2.06,0,3.75-1.69,3.75-3.75
		S123.19,62.63,121.12,62.63L121.12,62.63z M121.12,62.63"/>
	<path class="st0" d="M121.12,93.75H3.75C1.69,93.75,0,95.44,0,97.5s1.69,3.75,3.75,3.75h117.37c2.06,0,3.75-1.69,3.75-3.75
		S123.19,93.75,121.12,93.75L121.12,93.75z M121.12,93.75"/>
</g>
</svg>
