<?xml version="1.0" encoding="utf-8"?>
<!-- Generator: Adobe Illustrator 24.0.1, SVG Export Plug-In . SVG Version: 6.00 Build 0)  -->
<svg version="1.1" id="Camada_1" xmlns="http://www.w3.org/2000/svg" xmlns:xlink="http://www.w3.org/1999/xlink" x="0px" y="0px"
	 viewBox="0 0 103.15 95.78" style="enable-background:new 0 0 103.15 95.78;" xml:space="preserve">
<style type="text/css">
	.st0{fill:#21242E;}
	.st1{fill:#777A7A;}
	.st2{fill:#00B142;}
</style>
<g>
	<path class="st0" d="M3.68,7.37h95.78c2.03,0,3.68-1.65,3.68-3.68c0-2.03-1.65-3.68-3.68-3.68H3.68C1.65,0,0,1.65,0,3.68
		C0,5.72,1.65,7.37,3.68,7.37L3.68,7.37z M3.68,36.84H70c2.03,0,3.68-1.65,3.68-3.68c0-2.03-1.65-3.68-3.68-3.68H3.68
		C1.65,29.47,0,31.12,0,33.16C0,35.19,1.65,36.84,3.68,36.84L3.68,36.84z M58.94,88.41H3.68C1.65,88.41,0,90.06,0,92.1
		c0,2.03,1.65,3.68,3.68,3.68h55.26c2.03,0,3.68-1.65,3.68-3.68C62.63,90.06,60.98,88.41,58.94,88.41L58.94,88.41z M99.47,58.94
		H3.68C1.65,58.94,0,60.59,0,62.63c0,2.03,1.65,3.68,3.68,3.68h95.78c2.03,0,3.68-1.65,3.68-3.68
		C103.15,60.59,101.5,58.94,99.47,58.94L99.47,58.94z M99.47,58.94"/>
</g>
</svg>
