<?xml version="1.0" encoding="utf-8"?>
<!-- Generator: Adobe Illustrator 24.0.1, SVG Export Plug-In . SVG Version: 6.00 Build 0)  -->
<svg version="1.1" id="Camada_1" xmlns="http://www.w3.org/2000/svg" xmlns:xlink="http://www.w3.org/1999/xlink" x="0px" y="0px"
	 viewBox="0 0 104.46 99.91" style="enable-background:new 0 0 104.46 99.91;" xml:space="preserve">
<style type="text/css">
	.st0{fill:#21242E;}
	.st1{fill:#777A7A;}
	.st2{fill:#00B142;}
</style>
<g>
	<path class="st0" d="M14.76,63.58H3.41C1.53,63.58,0,62.06,0,60.18V54.5c0-4.38,3.56-7.95,7.95-7.95h2.27
		c0.63,0,1.13-0.51,1.13-1.14v-1.14c0-0.63-0.51-1.13-1.13-1.13H3.41C1.53,43.14,0,41.62,0,39.74c0-1.88,1.53-3.41,3.41-3.41h6.81
		c4.38,0,7.95,3.56,7.95,7.95v1.14c0,4.38-3.56,7.95-7.95,7.95H7.95c-0.63,0-1.13,0.51-1.13,1.14v2.27h7.95
		c1.88,0,3.41,1.53,3.41,3.41C18.17,62.06,16.64,63.58,14.76,63.58L14.76,63.58z M14.76,63.58"/>
	<path class="st0" d="M10.22,89.7H5.68c-1.88,0-3.41-1.53-3.41-3.41c0-1.88,1.53-3.41,3.41-3.41h4.54c0.63,0,1.13-0.51,1.13-1.14
		v-1.13c0-0.63-0.51-1.14-1.13-1.14H3.41C1.53,79.48,0,77.95,0,76.07c0-1.88,1.53-3.41,3.41-3.41h6.81c4.38,0,7.95,3.56,7.95,7.95
		v1.13C18.17,86.13,14.6,89.7,10.22,89.7L10.22,89.7z M10.22,89.7"/>
	<path class="st0" d="M10.22,99.91H3.41C1.53,99.91,0,98.39,0,96.51s1.53-3.41,3.41-3.41h6.81c0.63,0,1.13-0.51,1.13-1.14v-1.13
		c0-0.63-0.51-1.13-1.13-1.13H5.68c-1.88,0-3.41-1.53-3.41-3.41c0-1.88,1.53-3.41,3.41-3.41h4.54c4.38,0,7.95,3.56,7.95,7.95v1.13
		C18.17,96.35,14.6,99.91,10.22,99.91L10.22,99.91z M10.22,99.91"/>
	<path class="st0" d="M10.22,27.25c-1.88,0-3.41-1.53-3.41-3.41V6.81H3.41C1.53,6.81,0,5.29,0,3.41S1.53,0,3.41,0h6.81
		c1.88,0,3.41,1.53,3.41,3.41v20.44C13.62,25.72,12.1,27.25,10.22,27.25L10.22,27.25z M10.22,27.25"/>
	<path class="st0" d="M99.91,18.17H31.79c-2.51,0-4.54-2.04-4.54-4.54c0-2.51,2.04-4.54,4.54-4.54h68.12c2.51,0,4.54,2.03,4.54,4.54
		C104.46,16.13,102.42,18.17,99.91,18.17L99.91,18.17z M99.91,18.17"/>
	<path class="st0" d="M99.91,54.5H31.79c-2.51,0-4.54-2.03-4.54-4.54c0-2.51,2.04-4.54,4.54-4.54h68.12c2.51,0,4.54,2.03,4.54,4.54
		C104.46,52.46,102.42,54.5,99.91,54.5L99.91,54.5z M99.91,54.5"/>
	<path class="st0" d="M99.91,90.83H31.79c-2.51,0-4.54-2.03-4.54-4.54c0-2.51,2.04-4.54,4.54-4.54h68.12c2.51,0,4.54,2.04,4.54,4.54
		C104.46,88.8,102.42,90.83,99.91,90.83L99.91,90.83z M99.91,90.83"/>
</g>
</svg>
