<?xml version="1.0" encoding="utf-8"?>
<!-- Generator: Adobe Illustrator 24.0.1, SVG Export Plug-In . SVG Version: 6.00 Build 0)  -->
<svg version="1.1" id="Camada_1" xmlns="http://www.w3.org/2000/svg" xmlns:xlink="http://www.w3.org/1999/xlink" x="0px" y="0px"
	 viewBox="0 0 105.38 79.32" style="enable-background:new 0 0 105.38 79.32;" xml:space="preserve">
<style type="text/css">
	.st0{fill:#21242E;}
	.st1{fill:#777A7A;}
	.st2{fill:#00B142;}
</style>
<g>
	<path class="st0" d="M100.12,77.92H29.66c-2.91,0-5.26-2.35-5.26-5.26c0-2.9,2.35-5.26,5.26-5.26h70.47c2.9,0,5.26,2.36,5.26,5.26
		C105.38,75.58,103.03,77.92,100.12,77.92L100.12,77.92z M100.12,77.92"/>
	<path class="st0" d="M100.12,44.92H29.66c-2.91,0-5.26-2.36-5.26-5.26s2.35-5.26,5.26-5.26h70.47c2.9,0,5.26,2.36,5.26,5.26
		S103.03,44.92,100.12,44.92L100.12,44.92z M100.12,44.92"/>
	<path class="st0" d="M100.12,11.91H29.66c-2.91,0-5.26-2.36-5.26-5.26s2.35-5.26,5.26-5.26h70.47c2.9,0,5.26,2.36,5.26,5.26
		S103.03,11.91,100.12,11.91L100.12,11.91z M100.12,11.91"/>
	<path class="st0" d="M14.12,7.07c0,3.9-3.16,7.06-7.06,7.06C3.16,14.12,0,10.96,0,7.07S3.16,0,7.06,0
		C10.96,0,14.12,3.17,14.12,7.07L14.12,7.07z M14.12,7.07"/>
	<path class="st0" d="M14.12,39.66c0,3.9-3.16,7.06-7.06,7.06c-3.9,0-7.06-3.16-7.06-7.06s3.16-7.07,7.06-7.07
		C10.96,32.6,14.12,35.77,14.12,39.66L14.12,39.66z M14.12,39.66"/>
	<path class="st0" d="M14.12,72.26c0,3.9-3.16,7.06-7.06,7.06c-3.9,0-7.06-3.16-7.06-7.06c0-3.9,3.16-7.06,7.06-7.06
		C10.96,65.2,14.12,68.36,14.12,72.26L14.12,72.26z M14.12,72.26"/>
</g>
</svg>
