<?xml version="1.0" encoding="utf-8"?>
<!-- Generator: Adobe Illustrator 24.0.1, SVG Export Plug-In . SVG Version: 6.00 Build 0)  -->
<svg version="1.1" id="Camada_1" xmlns="http://www.w3.org/2000/svg" xmlns:xlink="http://www.w3.org/1999/xlink" x="0px" y="0px"
	 viewBox="0 0 56.46 56.46" style="enable-background:new 0 0 56.46 56.46;" xml:space="preserve">
<style type="text/css">
	.st0{fill:#21242E;}
	.st1{fill:#777A7A;}
	.st2{fill:#00B142;}
</style>
<g>
	<path class="st0" d="M48.19,8.27C42.86,2.94,35.77,0,28.23,0S13.6,2.94,8.27,8.27C2.94,13.6,0,20.69,0,28.23s2.94,14.63,8.27,19.96
		c5.33,5.33,12.42,8.27,19.96,8.27s14.63-2.94,19.96-8.27c5.33-5.33,8.27-12.42,8.27-19.96S53.53,13.6,48.19,8.27L48.19,8.27z
		 M28.23,53.15c-13.74,0-24.92-11.18-24.92-24.92S14.49,3.31,28.23,3.31s24.92,11.18,24.92,24.92S41.97,53.15,28.23,53.15
		L28.23,53.15z M28.23,53.15"/>
	<path class="st0" d="M30,26.58h-3.54c-2.02,0-3.66-1.64-3.66-3.66c0-2.02,1.64-3.66,3.66-3.66h7.09c0.91,0,1.65-0.74,1.65-1.65
		c0-0.91-0.74-1.65-1.65-1.65h-3.66v-3.66c0-0.91-0.74-1.65-1.65-1.65c-0.91,0-1.65,0.74-1.65,1.65v3.66h-0.12
		c-3.84,0-6.97,3.13-6.97,6.97c0,3.84,3.13,6.97,6.97,6.97H30c2.02,0,3.66,1.64,3.66,3.66c0,2.02-1.64,3.66-3.66,3.66h-7.09
		c-0.91,0-1.65,0.74-1.65,1.65c0,0.91,0.74,1.65,1.65,1.65h3.66v3.66c0,0.91,0.74,1.65,1.65,1.65c0.91,0,1.65-0.74,1.65-1.65v-3.66
		H30c3.84,0,6.97-3.13,6.97-6.97C36.97,29.7,33.85,26.58,30,26.58L30,26.58z M30,26.58"/>
</g>
</svg>
