<?xml version="1.0" encoding="utf-8"?>
<!-- Generator: Adobe Illustrator 24.0.1, SVG Export Plug-In . SVG Version: 6.00 Build 0)  -->
<svg version="1.1" id="Camada_1" xmlns="http://www.w3.org/2000/svg" xmlns:xlink="http://www.w3.org/1999/xlink" x="0px" y="0px"
	 viewBox="0 0 57.64 50.37" style="enable-background:new 0 0 57.64 50.37;" xml:space="preserve">
<style type="text/css">
	.st0{fill:#21242E;}
	.st1{fill:#777A7A;}
	.st2{fill:#00B142;}
</style>
<g>
	<g>
		<path class="st0" d="M43.85,0.37c-0.36-0.36-0.91-0.47-1.38-0.27c-0.47,0.2-0.78,0.66-0.78,1.17v6.78
			c-6.86,0.27-10.29,3.12-10.82,3.59c-3.46,2.84-5.82,6.8-6.68,11.19c-0.43,2.12-0.51,4.3-0.23,6.45l0,0.01
			c0,0.02,0.01,0.04,0.01,0.06l0.27,1.55c0.09,0.52,0.5,0.93,1.02,1.03c0.52,0.1,1.05-0.14,1.32-0.6l0.81-1.35
			c2.48-4.13,5.58-6.87,9.2-8.14c1.63-0.58,3.36-0.83,5.1-0.75v7.02c0,0.51,0.31,0.98,0.79,1.17c0.48,0.2,1.02,0.09,1.38-0.28
			l13.42-13.49c0.49-0.5,0.49-1.3,0-1.8L43.85,0.37z M44.23,25.03v-5.08c0-0.62-0.45-1.15-1.07-1.25c-1.09-0.18-3.98-0.45-7.41,0.75
			c-3.65,1.28-6.81,3.8-9.42,7.5c-0.01-1.22,0.11-2.43,0.34-3.62c0.77-3.9,2.73-7.18,5.83-9.74c0.03-0.02,0.05-0.05,0.08-0.07
			c0.09-0.08,3.31-2.99,10.36-2.94h0.01c0.7,0,1.27-0.57,1.27-1.27V4.32l10.35,10.3L44.23,25.03z M44.23,25.03"/>
	</g>
	<path class="st0" d="M52.99,37.39c-0.7,0-1.27,0.57-1.27,1.27v5.37c0,2.1-1.71,3.81-3.81,3.81H6.35c-2.1,0-3.81-1.71-3.81-3.81
		V13.77c0-2.1,1.71-3.81,3.81-3.81h8.78c0.7,0,1.27-0.57,1.27-1.27c0-0.7-0.57-1.27-1.27-1.27H6.35C2.84,7.43,0,10.27,0,13.77v30.25
		c0,3.5,2.84,6.34,6.35,6.35h41.56c3.5,0,6.34-2.84,6.35-6.35v-5.37C54.26,37.96,53.69,37.39,52.99,37.39L52.99,37.39z M52.99,37.39
		"/>
</g>
</svg>
