<?xml version="1.0" encoding="utf-8"?>
<!-- Generator: Adobe Illustrator 24.0.1, SVG Export Plug-In . SVG Version: 6.00 Build 0)  -->
<svg version="1.1" id="Camada_1" xmlns="http://www.w3.org/2000/svg" xmlns:xlink="http://www.w3.org/1999/xlink" x="0px" y="0px"
	 viewBox="0 0 92.71 76.64" style="enable-background:new 0 0 92.71 76.64;" xml:space="preserve">
<style type="text/css">
	.st0{fill:#21242E;}
	.st1{fill:#777A7A;}
	.st2{fill:#00B142;}
</style>
<g>
	<path class="st0" d="M49.42,31.85c5.4,0,9.78-4.37,9.78-9.78c0-5.4-4.37-9.78-9.78-9.78c-5.4,0-9.78,4.37-9.78,9.78
		C39.65,27.48,44.02,31.85,49.42,31.85z M49.42,16.69c2.96,0,5.38,2.42,5.38,5.38s-2.42,5.38-5.38,5.38s-5.38-2.42-5.38-5.38
		S46.44,16.69,49.42,16.69z"/>
	<path class="st0" d="M83.46,45.51V9.88c0-5.47-4.44-9.88-9.88-9.88H9.88C4.41,0,0,4.44,0,9.88v48.29c0,5.47,4.44,9.88,9.88,9.88
		h52.01c2.77,5.11,8.19,8.59,14.42,8.59c9.05,0,16.39-7.34,16.39-16.39C92.71,53.76,88.93,48.17,83.46,45.51z M4.37,10.43
		c0.02-3.07,2.31-6.03,5.4-6.03h63.91c3.07,0,5.38,2.96,5.38,6.03v19.45L53.8,44.69c-2.4,1.45-5.47,1.18-7.57-0.65L33.7,33.07
		c-3.85-3.36-9.52-3.59-13.62-0.55L4.37,43.94V10.43z M59.92,60.24c0,1.19,0.13,2.34,0.37,3.45H9.78c-3.07,0-5.38-2.96-5.38-6.03
		v-8.24l18.33-13.39c2.48-1.79,5.87-1.6,8.14,0.44l12.53,10.87c3.53,3.05,8.6,3.53,12.64,1.2l23.06-13.62v9.18
		c-0.9-0.15-1.83-0.25-2.77-0.25C67.26,43.85,59.92,51.19,59.92,60.24z M83.63,58.17c-0.25,0.25-0.57,0.37-0.89,0.37
		c-0.32,0-0.65-0.12-0.89-0.37l-3.74-3.74V69.9c0,0.7-0.57,1.26-1.26,1.26c-0.7,0-1.26-0.57-1.26-1.26V54.43l-3.74,3.74
		c-0.49,0.49-1.29,0.49-1.79,0c-0.49-0.49-0.49-1.29,0-1.79l5.89-5.89c0,0,0,0,0,0c0.03-0.03,0.06-0.05,0.09-0.08
		c0.01-0.01,0.03-0.02,0.05-0.03c0.02-0.01,0.03-0.03,0.05-0.04c0.02-0.01,0.04-0.02,0.06-0.03c0.02-0.01,0.03-0.02,0.05-0.03
		c0.02-0.01,0.04-0.02,0.06-0.03c0.02-0.01,0.04-0.02,0.05-0.03c0.02-0.01,0.04-0.01,0.06-0.02c0.02-0.01,0.04-0.01,0.06-0.02
		c0.02-0.01,0.04-0.01,0.06-0.01c0.02-0.01,0.04-0.01,0.06-0.02c0.02,0,0.04-0.01,0.06-0.01c0.02,0,0.04-0.01,0.06-0.01
		c0.04,0,0.08-0.01,0.12-0.01c0,0,0.01,0,0.01,0c0,0,0.01,0,0.01,0c0.04,0,0.08,0,0.12,0.01c0.02,0,0.04,0.01,0.06,0.01
		c0.02,0,0.04,0.01,0.06,0.01c0.02,0,0.04,0.01,0.06,0.02c0.02,0,0.04,0.01,0.05,0.01c0.02,0.01,0.04,0.01,0.06,0.02
		c0.02,0.01,0.04,0.01,0.05,0.02c0.02,0.01,0.04,0.02,0.06,0.03c0.02,0.01,0.04,0.02,0.06,0.03c0.02,0.01,0.04,0.02,0.05,0.03
		c0.02,0.01,0.04,0.02,0.05,0.03c0.02,0.01,0.04,0.03,0.06,0.04c0.01,0.01,0.03,0.02,0.04,0.03c0.03,0.03,0.06,0.05,0.09,0.08
		l5.89,5.89C84.12,56.87,84.12,57.67,83.63,58.17z"/>
</g>
</svg>
