<?xml version="1.0" encoding="utf-8"?>
<!-- Generator: Adobe Illustrator 24.0.1, SVG Export Plug-In . SVG Version: 6.00 Build 0)  -->
<svg version="1.1" id="Camada_1" xmlns="http://www.w3.org/2000/svg" xmlns:xlink="http://www.w3.org/1999/xlink" x="0px" y="0px"
	 viewBox="0 0 56.65 53.22" style="enable-background:new 0 0 56.65 53.22;" xml:space="preserve">
<style type="text/css">
	.st0{fill:#21242E;}
	.st1{fill:#777A7A;}
	.st2{fill:#00B142;}
</style>
<g>
	<g>
		<path class="st0" d="M18.13,16.41l7.62-7.62v31.55c0,1.42,1.15,2.58,2.58,2.58c1.42,0,2.58-1.15,2.58-2.58V8.79l7.62,7.62
			c0.5,0.5,1.16,0.75,1.82,0.75c0.66,0,1.32-0.25,1.82-0.75c1.01-1.01,1.01-2.64,0-3.64L30.15,0.75c-0.06-0.06-0.12-0.12-0.19-0.17
			c-0.03-0.02-0.06-0.04-0.09-0.07c-0.04-0.03-0.08-0.06-0.11-0.08c-0.04-0.02-0.07-0.04-0.11-0.07c-0.04-0.02-0.07-0.04-0.11-0.06
			c-0.04-0.02-0.08-0.04-0.11-0.05c-0.04-0.02-0.08-0.04-0.12-0.05c-0.04-0.02-0.07-0.03-0.11-0.04c-0.04-0.02-0.08-0.03-0.13-0.04
			C29.04,0.1,29,0.09,28.96,0.08c-0.04-0.01-0.09-0.02-0.13-0.03c-0.04-0.01-0.09-0.01-0.13-0.02c-0.04-0.01-0.08-0.01-0.12-0.02
			C28.5,0.01,28.42,0,28.34,0c0,0-0.01,0-0.02,0c0,0-0.01,0-0.02,0c-0.08,0-0.16,0-0.24,0.01c-0.04,0-0.08,0.01-0.12,0.02
			c-0.04,0.01-0.09,0.01-0.13,0.02c-0.04,0.01-0.09,0.02-0.13,0.03c-0.04,0.01-0.08,0.02-0.12,0.03c-0.04,0.01-0.08,0.03-0.12,0.04
			c-0.04,0.01-0.08,0.03-0.12,0.04c-0.04,0.02-0.07,0.03-0.11,0.05c-0.04,0.02-0.08,0.04-0.12,0.06c-0.03,0.02-0.07,0.04-0.1,0.06
			c-0.04,0.02-0.08,0.04-0.11,0.07c-0.04,0.02-0.07,0.05-0.11,0.08c-0.03,0.02-0.06,0.05-0.09,0.07c-0.06,0.05-0.12,0.11-0.18,0.16
			c0,0-0.01,0-0.01,0.01L14.49,12.77c-1.01,1.01-1.01,2.64,0,3.64C15.49,17.42,17.12,17.42,18.13,16.41L18.13,16.41z M18.13,16.41"
			/>
		<path class="st0" d="M54.08,25.75c-1.42,0-2.58,1.15-2.58,2.58v19.74H5.15V28.33c0-1.42-1.15-2.58-2.58-2.58
			C1.15,25.75,0,26.9,0,28.33v22.32c0,1.42,1.15,2.58,2.58,2.58h51.5c1.42,0,2.58-1.15,2.58-2.58V28.33
			C56.65,26.9,55.5,25.75,54.08,25.75L54.08,25.75z M54.08,25.75"/>
	</g>
</g>
</svg>
